<?xml version="1.0" standalone="no"?><!DOCTYPE svg PUBLIC "-//W3C//DTD SVG 1.1//EN" "http://www.w3.org/Graphics/SVG/1.1/DTD/svg11.dtd"><svg t="1529029234379" class="icon" style="" viewBox="0 0 1024 1024" version="1.1" xmlns="http://www.w3.org/2000/svg" p-id="34780" xmlns:xlink="http://www.w3.org/1999/xlink" width="200" height="200"><defs><style type="text/css"></style></defs><path d="M349.8 70.8H245.1c-97.4 0-176.3 78.9-176.3 176.3v106.1h50.1L349.8 121V70.8z m424.1 0H669.1V121L900 353.2h50.2V247.1c0-97.4-78.9-176.3-176.3-176.3zM509.2 176.6c-214.2 0-387.8 173.6-387.8 387.8 0 97.2 35.9 186 95 254.1l-90.7 111.2L153 952l87.9-107.8c69.7 66.8 164.2 108 268.4 108 104.4 0 199.2-41.4 268.9-108.5L866 952.1l27.4-22.2-90.8-112c58.8-68 94.5-156.6 94.5-253.5 0-214.2-173.7-387.8-387.9-387.8z m17.9 423.1H297.5v-35.3h194.4V282.3h35.3v317.4z" p-id="34781"></path></svg>