<?xml version="1.0" standalone="no"?><!DOCTYPE svg PUBLIC "-//W3C//DTD SVG 1.1//EN" "http://www.w3.org/Graphics/SVG/1.1/DTD/svg11.dtd"><svg t="1528881060921" class="icon" style="" viewBox="0 0 1024 1024" version="1.1" xmlns="http://www.w3.org/2000/svg" p-id="4231" xmlns:xlink="http://www.w3.org/1999/xlink" width="200" height="200"><defs><style type="text/css"></style></defs><path d="M511.999488 956.346157c-245.305939 0-444.346157-199.039195-444.346157-444.344111 0-245.305939 199.040219-444.347181 444.346157-444.347181s444.347181 199.040219 444.347181 444.347181C956.345646 757.306962 757.305427 956.346157 511.999488 956.346157M511.999488 120.097262c-216.257346 0-391.899668 175.373193-391.899668 391.897621 0 216.528522 175.373193 391.901715 391.899668 391.901715s391.899668-175.373193 391.899668-391.901715C903.898133 295.739585 728.530057 120.097262 511.999488 120.097262M433.187515 432.110485l-55.677067 0c-1.617847-53.529147 15.33015-92.257194 50.832735-116.466572 24.210401-19.367093 54.070476-29.04757 89.844238-29.04757 80.691787 6.455015 123.726929 46.796816 128.565121 121.30374 1.61887 33.891901-16.942881 68.594261-55.677067 104.366999-42.496883 30.387078-61.057611 67.51365-55.945173 111.085004l-53.527101 0c-1.611707-30.665417 1.61887-54.072523 9.685593-70.200852 4.844332-14.530948 20.980847-35.509748 48.415686-62.944588l4.841262-4.838192c33.891901-29.052686 49.222051-55.677067 45.995567-79.887468-4.841262-46.801932-29.854958-71.012334-75.04416-72.89317-56.481386 1.611707-83.919295 34.691103-82.305541 99.523691l0 0 0 0L433.187515 432.111508zM539.972587 674.457022l0 62.940494L479.453235 737.397516l0-62.940494L539.972587 674.457022 539.972587 674.457022zM539.972587 674.457022" p-id="4232"></path></svg>