<?xml version="1.0" standalone="no"?><!DOCTYPE svg PUBLIC "-//W3C//DTD SVG 1.1//EN" "http://www.w3.org/Graphics/SVG/1.1/DTD/svg11.dtd"><svg t="1528876219862" class="icon" style="" viewBox="0 0 1024 1024" version="1.1" xmlns="http://www.w3.org/2000/svg" p-id="8948" xmlns:xlink="http://www.w3.org/1999/xlink" width="200" height="200"><defs><style type="text/css"></style></defs><path d="M906 492.9H805.6c-11 0-20 9-20 20s9 20 20 20H906c11 0 20-9 20-20s-9-20-20-20zM822 266.4c5.1 0 10.2-2 14.1-5.9l71-71c7.8-7.8 7.8-20.5 0-28.3s-20.5-7.8-28.3 0l-71 71c-7.8 7.8-7.8 20.5 0 28.3 4 3.9 9.1 5.9 14.2 5.9zM836 762.1c-7.8-7.8-20.5-7.8-28.3 0-7.8 7.8-7.8 20.5 0 28.3l71 71c3.9 3.9 9 5.9 14.1 5.9s10.2-2 14.1-5.9c7.8-7.8 7.8-20.5 0-28.3l-70.9-71zM607.4 102.2c-8.6-4.9-19.2-4.9-27.7 0l-1.2 0.7-264.3 204.7H131.7c-19.3 0-35 14.9-35 33.1v344.8c0 16.8 14.4 30.5 32 30.5h185.5l264.3 206.3 1.2 0.7c4.3 2.5 9.1 3.7 13.9 3.7 4.8 0 9.6-1.2 13.9-3.7 8.6-4.9 13.9-14.1 13.9-24V126.2c-0.2-9.8-5.5-19-14-24z m-26.2 771.6L333.4 680.2c-0.2-0.1-0.3-0.2-0.5-0.3-0.3-0.2-0.6-0.5-0.9-0.7-0.2-0.2-0.5-0.3-0.7-0.5-0.3-0.2-0.6-0.4-0.9-0.5-0.3-0.1-0.6-0.3-0.8-0.4-0.3-0.1-0.6-0.3-0.9-0.4l-0.9-0.3-0.9-0.3c-0.3-0.1-0.7-0.2-1-0.3-0.3-0.1-0.6-0.1-0.9-0.2-0.4-0.1-0.7-0.1-1.1-0.2-0.3 0-0.6-0.1-0.9-0.1-0.4 0-0.8 0-1.2-0.1H136.7V347.6h184.9c0.4 0 0.8 0 1.2-0.1 0.3 0 0.6-0.1 0.9-0.1 0.4 0 0.7-0.1 1.1-0.2 0.3-0.1 0.6-0.1 0.9-0.2 0.3-0.1 0.7-0.2 1-0.3l0.9-0.3 0.9-0.3c0.3-0.1 0.6-0.3 0.9-0.4 0.3-0.1 0.6-0.3 0.8-0.4 0.3-0.2 0.6-0.3 1-0.5 0.2-0.1 0.5-0.3 0.7-0.5 0.3-0.2 0.6-0.4 0.9-0.7 0.2-0.1 0.3-0.2 0.5-0.3l247.9-192.1v722.6zM676.8 360.3c-8.8-6.7-21.3-5-28 3.8-6.7 8.8-5 21.3 3.8 28 38 28.9 59.9 72.9 59.9 120.6 0 47.9-21.9 91.9-60.1 120.8-8.8 6.7-10.5 19.2-3.9 28 3.9 5.2 9.9 7.9 16 7.9 4.2 0 8.4-1.3 12.1-4.1 23.1-17.5 42.2-40.3 55.3-66.1 13.7-27 20.7-56.2 20.7-86.7 0-30.4-6.9-59.5-20.6-86.5-13.1-25.4-32.2-48.2-55.2-65.7z" p-id="8949"></path></svg>