<?xml version="1.0" standalone="no"?><!DOCTYPE svg PUBLIC "-//W3C//DTD SVG 1.1//EN" "http://www.w3.org/Graphics/SVG/1.1/DTD/svg11.dtd"><svg t="1569281649201" class="icon" viewBox="0 0 1024 1024" version="1.1" xmlns="http://www.w3.org/2000/svg" p-id="2160" xmlns:xlink="http://www.w3.org/1999/xlink" width="200" height="200"><defs><style type="text/css"></style></defs><path d="M759.349 200.868h-494.739c-35.152 0-63.719 28.566-63.719 63.719v494.827c0 35.152 28.566 63.719 63.719 63.719h494.783c35.148 0 63.716-28.566 63.716-63.719v-494.87c-0.042-35.152-28.61-63.675-63.763-63.675v0zM703.003 377.671l-1.317 0.703-0.175 1.49c-13.565 93.606-95.051 164.214-189.535 164.214-94.477 0-175.971-70.608-189.532-164.214l-0.22-1.49-1.317-0.703c-9.392-5.574-15.008-15.007-15.008-25.363 0-16.413 13.341-29.754 29.796-29.754 16.413 0 29.757 13.341 29.757 29.754 0 8.643-3.907 16.716-11.056 22.643l-1.406 1.099 0.306 1.759c12.509 78.506 79.252 135.468 158.685 135.468 79.428 0 146.176-57.006 158.683-135.468l0.307-1.711-1.359-1.098c-7.196-5.968-11.061-13.998-11.061-22.644 0-16.409 13.341-29.757 29.754-29.757v0 0 0c16.458 0 29.796 13.341 29.796 29.757-0.044 10.311-5.657 19.745-15.091 25.317v0zM703.003 377.671z" p-id="2161"></path></svg>