<?xml version="1.0" standalone="no"?><!DOCTYPE svg PUBLIC "-//W3C//DTD SVG 1.1//EN" "http://www.w3.org/Graphics/SVG/1.1/DTD/svg11.dtd"><svg t="1564985660474" class="icon" viewBox="0 0 1024 1024" version="1.1" xmlns="http://www.w3.org/2000/svg" p-id="5538" xmlns:xlink="http://www.w3.org/1999/xlink" width="200" height="200"><defs><style type="text/css"></style></defs><path d="M938.666667 512H844.8c0-179.2-145.066667-332.8-332.8-332.8-85.333333 0-170.666667 34.133333-230.4 93.866667l-68.266667-59.733334c34.133333-42.666667 85.333333-68.266667 128-93.866666 59.733333-25.6 110.933333-34.133333 170.666667-34.133334s110.933333 8.533333 162.133333 34.133334c51.2 25.6 102.4 51.2 136.533334 93.866666 42.666667 42.666667 68.266667 85.333333 93.866666 136.533334 17.066667 51.2 34.133333 102.4 34.133334 162.133333z m-426.666667 426.666667c-59.733333 0-110.933333-8.533333-162.133333-34.133334-51.2-25.6-102.4-51.2-136.533334-93.866666-42.666667-34.133333-76.8-85.333333-93.866666-136.533334C93.866667 622.933333 85.333333 571.733333 85.333333 512h93.866667c0 179.2 145.066667 332.8 332.8 332.8 68.266667 0 136.533333-17.066667 187.733333-59.733333 17.066667-17.066667 34.133333-25.6 42.666667-42.666667l68.266667 68.266667c-17.066667 17.066667-34.133333 34.133333-59.733334 51.2-68.266667 51.2-153.6 76.8-238.933333 76.8z m0 0" p-id="5539"></path><path d="M0 503.466667l128-145.066667h8.533333l128 145.066667V512h-256C0 512 0 503.466667 0 503.466667z m759.466667 17.066666l128 145.066667h8.533333L1024 520.533333V512H768c-17.066667 0-17.066667 8.533333-8.533333 8.533333z m0 0" p-id="5540"></path></svg>