<?xml version="1.0" standalone="no"?><!DOCTYPE svg PUBLIC "-//W3C//DTD SVG 1.1//EN" "http://www.w3.org/Graphics/SVG/1.1/DTD/svg11.dtd"><svg t="1541732941577" class="icon" style="" viewBox="0 0 1024 1024" version="1.1" xmlns="http://www.w3.org/2000/svg" p-id="16122" xmlns:xlink="http://www.w3.org/1999/xlink" width="200" height="200"><defs><style type="text/css"></style></defs><path d="M511 22C240.912 22 21 241.81 21 512c0 270.293 219.844 490 490 490s490-219.707 490-490c0-270.19-219.775-490-490-490z" fill="#F5A218" p-id="16123"></path><path d="M511 707.986c-12.817 0-25.566 5.264-34.658 14.355-9.058 9.092-14.355 21.807-14.355 34.658s5.298 25.566 14.355 34.658 21.807 14.355 34.658 14.355 25.566-5.264 34.658-14.355 14.355-21.807 14.355-34.658-5.264-25.566-14.355-34.658c-9.057-9.091-21.806-14.355-34.658-14.355zM510.351 234.324c-47.578 0-86.03 15.449-115.356 46.279-29.292 30.864-46.382 73.384-47.305 112.554-0.957 39.204 77.144 31.069 80.015 11.724 3.076-20.508 15.859-53.628 30.762-68.599 14.937-15.005 33.496-22.524 55.679-22.524 23.037 0 41.289 7.212 54.893 21.602 13.604 14.424 20.439 31.719 20.439 51.919 0 14.561-3.896 27.891-11.484 39.99-4.99 7.656-20.234 23.789-45.664 48.501-25.396 24.678-42.417 46.895-50.894 66.582-8.442 19.756-12.715 44.912-12.715 75.537 0 2.939 0.068 11.211 0.308 24.814h79.16c-0.41-28.643 1.641-48.535 6.084-59.609 4.443-11.143 15.859-25.84 34.248-44.023 35.547-35.308 58.721-63.232 69.59-83.672 10.801-20.439 16.27-42.212 16.27-65.146 0-41.46-14.766-77.827-44.434-109.033-29.668-31.24-69.453-46.895-119.526-46.895h-0.07z" fill="#FFFFFF" p-id="16124"></path></svg>